# Blender v2.80 (sub 74) OBJ File: ''
# www.blender.org
mtllib wood.mtl
o Cube.522_Cube.001
v -22.501421 -3.603731 7.912483
v -22.764549 -3.640574 7.903751
v -22.761793 -3.727482 7.904314
v -22.497673 -3.725573 7.913103
v -21.802378 -3.509110 7.949600
v -22.140707 -3.548363 7.920424
v -22.136387 -3.687655 7.920923
v -21.798275 -3.636344 7.950163
v -22.146252 -3.475004 7.777730
v -21.809914 -3.389111 7.745245
v -21.803211 -3.549471 7.744101
v -22.137806 -3.664193 7.776267
v -21.804241 -3.481343 7.924263
v -22.141478 -3.533133 7.907422
v -22.498390 -3.708670 7.793816
v -22.762047 -3.722180 7.812393
v -22.504431 -3.572645 7.795189
v -23.031286 -3.696375 7.899282
v -23.031307 -3.696788 7.822813
v -23.043762 -3.638351 7.822496
v -22.765936 -3.620521 7.812798
v -23.040319 -3.653646 7.899052
vt 0.609402 0.617666
vt 0.609402 0.617666
vt 0.609402 0.617666
vt 0.609402 0.617666
vt 0.609402 0.617666
vt 0.609402 0.617666
vt 0.609402 0.617666
vt 0.609402 0.617666
vt 0.609402 0.617666
vt 0.609402 0.617666
vt 0.609402 0.617666
vt 0.609402 0.617666
vt 0.609402 0.617666
vt 0.609402 0.617666
vt 0.609402 0.617666
vt 0.609402 0.617666
vt 0.609402 0.617666
vt 0.609402 0.617666
vt 0.609402 0.617666
vt 0.609402 0.617666
vt 0.609402 0.617666
vt 0.609402 0.617666
vn -0.0335 0.0046 0.9994
vn -0.0862 0.0012 0.9963
vn -0.0969 0.0032 -0.9953
vn -0.1705 0.8836 0.4361
vn 0.0271 -0.9941 -0.1046
vn -0.0499 0.0065 -0.9987
vn -0.2046 0.9186 0.3382
vn 0.1101 -0.9824 -0.1511
vn 0.2277 -0.9277 -0.2960
vn -0.1045 -0.9941 -0.0287
vn 0.9994 0.0322 -0.0104
vn -0.0368 -0.0032 -0.9993
vn -0.0526 0.9768 0.2076
vn -0.0177 0.0045 0.9998
vn -0.0223 0.0036 0.9997
vn -0.9782 -0.2078 0.0019
vn -0.1152 0.6416 0.7583
vn -0.1388 0.6543 0.7434
vn 0.9991 0.0418 -0.0101
vn 0.9985 0.0536 -0.0146
vn -0.0693 0.0046 -0.9976
vn -0.1509 0.9593 0.2388
usemtl cylinder.003
s off
f 1/1/1 2/2/1 3/3/1 4/4/1
f 5/5/2 6/6/2 7/7/2 8/8/2
f 9/9/3 10/10/3 11/11/3 12/12/3
f 13/13/4 10/10/4 9/9/4 14/14/4
f 15/15/5 4/4/5 3/3/5 16/16/5
f 17/17/6 9/9/6 12/12/6 15/15/6
f 1/1/7 14/14/7 9/9/7 17/17/7
f 12/12/8 7/7/8 4/4/8 15/15/8
f 11/11/9 8/8/9 7/7/9 12/12/9
f 16/16/10 3/3/10 18/18/10 19/19/10
f 5/5/11 8/8/11 11/11/11
f 20/20/12 21/21/12 16/16/12 19/19/12
f 21/21/13 20/20/13 22/22/13 2/2/13
f 2/2/14 22/22/14 18/18/14 3/3/14
f 6/6/15 1/1/15 4/4/15 7/7/15
f 22/22/16 20/20/16 19/19/16 18/18/16
f 1/1/17 6/6/17 14/14/17
f 6/6/18 5/5/18 13/13/18 14/14/18
f 10/10/19 13/13/19 11/11/19
f 13/13/20 5/5/20 11/11/20
f 17/17/21 15/15/21 16/16/21 21/21/21
f 2/2/22 1/1/22 17/17/22 21/21/22
